<svg width="170" height="134" viewBox="0 0 170 134" fill="none" xmlns="http://www.w3.org/2000/svg">
<rect x="2" y="2" width="166" height="130" stroke="white" stroke-width="4"/>
<path d="M27.276 15.599H31.791L35.575 25.962L39.402 15.599H43.917L38.671 29.187L43.229 40.41L52.732 15.47H58.021L45.508 46H41.337L35.618 32.326L29.856 46H25.642L13.172 15.47H18.418L27.964 40.41L32.522 29.187L27.276 15.599ZM56.994 39.421C56.994 37.9877 57.3954 36.7407 58.198 35.68C59.0294 34.5907 60.1617 33.7593 61.595 33.186C63.0284 32.584 64.691 32.283 66.583 32.283C67.5864 32.283 68.604 32.3547 69.636 32.498C70.6967 32.6413 71.6284 32.8707 72.431 33.186V31.767C72.431 30.1903 71.958 28.9577 71.012 28.069C70.066 27.1803 68.7044 26.736 66.927 26.736C65.6657 26.736 64.476 26.9653 63.358 27.424C62.24 27.854 61.0504 28.4703 59.789 29.273L58.198 26.091C59.6887 25.0877 61.1794 24.3423 62.67 23.855C64.1894 23.3677 65.7804 23.124 67.443 23.124C70.453 23.124 72.818 23.9267 74.538 25.532C76.2867 27.1087 77.161 29.359 77.161 32.283V40.668C77.161 41.2127 77.247 41.5997 77.419 41.829C77.6197 42.0583 77.9494 42.1873 78.408 42.216V46C77.978 46.086 77.591 46.1433 77.247 46.172C76.903 46.2007 76.6164 46.215 76.387 46.215C75.3837 46.215 74.624 45.9713 74.108 45.484C73.592 44.9967 73.291 44.4233 73.205 43.764L73.076 42.474C72.1014 43.7353 70.8544 44.71 69.335 45.398C67.8157 46.086 66.282 46.43 64.734 46.43C63.2434 46.43 61.9104 46.129 60.735 45.527C59.5597 44.8963 58.6424 44.0507 57.983 42.99C57.3237 41.9293 56.994 40.7397 56.994 39.421ZM71.313 40.797C71.657 40.4243 71.9294 40.0517 72.13 39.679C72.3307 39.3063 72.431 38.9767 72.431 38.69V36.11C71.6284 35.7947 70.7827 35.5653 69.894 35.422C69.0054 35.25 68.131 35.164 67.271 35.164C65.551 35.164 64.1464 35.508 63.057 36.196C61.9964 36.884 61.466 37.83 61.466 39.034C61.466 39.6933 61.638 40.324 61.982 40.926C62.3547 41.528 62.8707 42.0153 63.53 42.388C64.218 42.7607 65.0637 42.947 66.067 42.947C67.099 42.947 68.088 42.7463 69.034 42.345C69.98 41.9437 70.7397 41.4277 71.313 40.797ZM95.2446 44.839C94.8432 45.0397 94.3416 45.2547 93.7396 45.484C93.1376 45.7133 92.4496 45.914 91.6756 46.086C90.9302 46.258 90.1562 46.344 89.3536 46.344C88.3789 46.344 87.4759 46.172 86.6446 45.828C85.8132 45.484 85.1396 44.9393 84.6236 44.194C84.1362 43.42 83.8926 42.431 83.8926 41.227V27.166H80.9256V23.511H83.8926V16.115H88.6226V23.511H93.5246V27.166H88.6226V39.722C88.6799 40.496 88.9236 41.0693 89.3536 41.442C89.8122 41.8147 90.3712 42.001 91.0306 42.001C91.6899 42.001 92.3206 41.8863 92.9226 41.657C93.5246 41.4277 93.9689 41.2413 94.2556 41.098L95.2446 44.839ZM108.418 46.43C106.669 46.43 105.078 46.129 103.645 45.527C102.24 44.8963 101.022 44.0507 99.9897 42.99C98.9577 41.9007 98.155 40.668 97.5817 39.292C97.037 37.8873 96.7647 36.3967 96.7647 34.82C96.7647 32.6987 97.252 30.7637 98.2267 29.015C99.2013 27.2377 100.563 25.8187 102.312 24.758C104.06 23.6687 106.11 23.124 108.461 23.124C110.811 23.124 112.832 23.6687 114.524 24.758C116.244 25.8187 117.577 27.2233 118.523 28.972C119.469 30.7207 119.942 32.5983 119.942 34.605C119.942 34.949 119.927 35.2787 119.899 35.594C119.87 35.8807 119.841 36.1243 119.813 36.325H101.796C101.882 37.6437 102.24 38.8047 102.871 39.808C103.53 40.7827 104.361 41.5567 105.365 42.13C106.368 42.6747 107.443 42.947 108.59 42.947C109.851 42.947 111.041 42.6317 112.159 42.001C113.305 41.3703 114.079 40.539 114.481 39.507L118.523 40.668C118.035 41.7573 117.29 42.7463 116.287 43.635C115.312 44.495 114.151 45.183 112.804 45.699C111.456 46.1863 109.994 46.43 108.418 46.43ZM101.667 33.186H115.255C115.169 31.896 114.796 30.7637 114.137 29.789C113.506 28.7857 112.689 28.0117 111.686 27.467C110.711 26.8937 109.622 26.607 108.418 26.607C107.242 26.607 106.153 26.8937 105.15 27.467C104.175 28.0117 103.372 28.7857 102.742 29.789C102.111 30.7637 101.753 31.896 101.667 33.186ZM136.442 27.596C134.607 27.6247 132.973 28.0403 131.54 28.843C130.135 29.6457 129.132 30.778 128.53 32.24V46H123.8V23.511H128.186V28.542C128.96 26.994 129.978 25.7613 131.239 24.844C132.5 23.898 133.833 23.382 135.238 23.296C135.525 23.296 135.754 23.296 135.926 23.296C136.127 23.296 136.299 23.3103 136.442 23.339V27.596ZM42.111 83V61.242L33.124 77.754H30.286L21.256 61.242V83H16.44V52.47H21.6L31.705 71.132L41.81 52.47H46.97V83H42.111ZM54.027 88.289C54.457 88.3463 54.8727 88.4037 55.274 88.461C55.704 88.547 56.048 88.59 56.306 88.59C56.7934 88.59 57.209 88.4323 57.553 88.117C57.9257 87.8303 58.2984 87.2857 58.671 86.483C59.0437 85.6803 59.5024 84.5193 60.047 83L50.802 60.511H55.747L62.627 78.184L68.733 60.511H73.291L63.1 88.203C62.7847 89.0343 62.326 89.794 61.724 90.482C61.122 91.1987 60.3767 91.7577 59.488 92.159C58.5994 92.5603 57.553 92.761 56.349 92.761C56.005 92.761 55.6467 92.7323 55.274 92.675C54.9014 92.6177 54.4857 92.5317 54.027 92.417V88.289ZM16.44 120V89.47H29.254C30.63 89.47 31.8913 89.7567 33.038 90.33C34.1847 90.9033 35.188 91.663 36.048 92.609C36.908 93.555 37.5673 94.6157 38.026 95.791C38.4847 96.9663 38.714 98.1703 38.714 99.403C38.714 101.094 38.327 102.714 37.553 104.262C36.8077 105.781 35.7327 107.014 34.328 107.96C32.952 108.906 31.3467 109.379 29.512 109.379H21.256V120H16.44ZM21.256 105.122H29.211C30.1283 105.122 30.931 104.878 31.619 104.391C32.307 103.875 32.8373 103.187 33.21 102.327C33.6113 101.467 33.812 100.492 33.812 99.403C33.812 98.285 33.5827 97.296 33.124 96.436C32.6653 95.576 32.0633 94.9167 31.318 94.458C30.6013 93.9707 29.813 93.727 28.953 93.727H21.256V105.122ZM42.672 88.61H47.402V113.507C47.402 114.654 47.574 115.385 47.918 115.7C48.262 116.015 48.692 116.173 49.208 116.173C49.7813 116.173 50.3117 116.116 50.799 116.001C51.315 115.886 51.7593 115.743 52.132 115.571L52.82 119.312C52.132 119.599 51.315 119.842 50.369 120.043C49.423 120.244 48.5773 120.344 47.832 120.344C46.2267 120.344 44.9653 119.9 44.048 119.011C43.1307 118.094 42.672 116.832 42.672 115.227V88.61ZM53.9286 113.421C53.9286 111.988 54.3299 110.741 55.1326 109.68C55.9639 108.591 57.0963 107.759 58.5296 107.186C59.9629 106.584 61.6256 106.283 63.5176 106.283C64.5209 106.283 65.5386 106.355 66.5706 106.498C67.6313 106.641 68.5629 106.871 69.3656 107.186V105.767C69.3656 104.19 68.8926 102.958 67.9466 102.069C67.0006 101.18 65.6389 100.736 63.8616 100.736C62.6003 100.736 61.4106 100.965 60.2926 101.424C59.1746 101.854 57.9849 102.47 56.7236 103.273L55.1326 100.091C56.6233 99.0877 58.1139 98.3423 59.6046 97.855C61.1239 97.3677 62.7149 97.124 64.3776 97.124C67.3876 97.124 69.7526 97.9267 71.4726 99.532C73.2213 101.109 74.0956 103.359 74.0956 106.283V114.668C74.0956 115.213 74.1816 115.6 74.3536 115.829C74.5543 116.058 74.8839 116.187 75.3426 116.216V120C74.9126 120.086 74.5256 120.143 74.1816 120.172C73.8376 120.201 73.5509 120.215 73.3216 120.215C72.3183 120.215 71.5586 119.971 71.0426 119.484C70.5266 118.997 70.2256 118.423 70.1396 117.764L70.0106 116.474C69.0359 117.735 67.7889 118.71 66.2696 119.398C64.7503 120.086 63.2166 120.43 61.6686 120.43C60.1779 120.43 58.8449 120.129 57.6696 119.527C56.4943 118.896 55.5769 118.051 54.9176 116.99C54.2583 115.929 53.9286 114.74 53.9286 113.421ZM68.2476 114.797C68.5916 114.424 68.8639 114.052 69.0646 113.679C69.2653 113.306 69.3656 112.977 69.3656 112.69V110.11C68.5629 109.795 67.7173 109.565 66.8286 109.422C65.9399 109.25 65.0656 109.164 64.2056 109.164C62.4856 109.164 61.0809 109.508 59.9916 110.196C58.9309 110.884 58.4006 111.83 58.4006 113.034C58.4006 113.693 58.5726 114.324 58.9166 114.926C59.2893 115.528 59.8053 116.015 60.4646 116.388C61.1526 116.761 61.9983 116.947 63.0016 116.947C64.0336 116.947 65.0226 116.746 65.9686 116.345C66.9146 115.944 67.6743 115.428 68.2476 114.797ZM100.001 120H95.2711V107.401C95.2711 105.308 94.9271 103.775 94.2391 102.8C93.5798 101.825 92.5908 101.338 91.2721 101.338C90.3548 101.338 89.4374 101.567 88.5201 102.026C87.6314 102.485 86.8288 103.115 86.1121 103.918C85.3954 104.692 84.8794 105.595 84.5641 106.627V120H79.8341V97.511H84.1341V102.026C84.7074 101.023 85.4528 100.163 86.3701 99.446C87.3161 98.7007 88.3768 98.1273 89.5521 97.726C90.7274 97.3247 91.9744 97.124 93.2931 97.124C94.6404 97.124 95.7441 97.3677 96.6041 97.855C97.4928 98.3423 98.1808 99.016 98.6681 99.876C99.1841 100.707 99.5281 101.682 99.7001 102.8C99.9008 103.889 100.001 105.05 100.001 106.283V120ZM117.836 118.839C117.435 119.04 116.933 119.255 116.331 119.484C115.729 119.713 115.041 119.914 114.267 120.086C113.522 120.258 112.748 120.344 111.945 120.344C110.971 120.344 110.068 120.172 109.236 119.828C108.405 119.484 107.731 118.939 107.215 118.194C106.728 117.42 106.484 116.431 106.484 115.227V101.166H103.517V97.511H106.484V90.115H111.214V97.511H116.116V101.166H111.214V113.722C111.272 114.496 111.515 115.069 111.945 115.442C112.404 115.815 112.963 116.001 113.622 116.001C114.282 116.001 114.912 115.886 115.514 115.657C116.116 115.428 116.561 115.241 116.847 115.098L117.836 118.839ZM129.11 120.43C127.218 120.43 125.427 120.129 123.735 119.527C122.044 118.896 120.596 117.965 119.392 116.732L121.155 113.55C122.445 114.697 123.735 115.528 125.025 116.044C126.344 116.56 127.648 116.818 128.938 116.818C130.257 116.818 131.332 116.574 132.163 116.087C132.995 115.571 133.41 114.826 133.41 113.851C133.41 113.134 133.195 112.604 132.765 112.26C132.335 111.916 131.705 111.615 130.873 111.357C130.071 111.099 129.096 110.812 127.949 110.497C126.344 110.01 124.997 109.508 123.907 108.992C122.818 108.447 122.001 107.788 121.456 107.014C120.912 106.24 120.639 105.251 120.639 104.047C120.639 102.585 121.012 101.338 121.757 100.306C122.503 99.274 123.535 98.4857 124.853 97.941C126.201 97.3963 127.749 97.124 129.497 97.124C131.131 97.124 132.636 97.382 134.012 97.898C135.417 98.3853 136.65 99.1593 137.71 100.22L135.689 103.359C134.686 102.442 133.654 101.768 132.593 101.338C131.561 100.908 130.443 100.693 129.239 100.693C128.551 100.693 127.892 100.779 127.261 100.951C126.631 101.094 126.1 101.381 125.67 101.811C125.269 102.212 125.068 102.786 125.068 103.531C125.068 104.133 125.24 104.62 125.584 104.993C125.928 105.366 126.444 105.681 127.132 105.939C127.82 106.197 128.666 106.484 129.669 106.799C131.418 107.315 132.909 107.831 134.141 108.347C135.374 108.834 136.32 109.479 136.979 110.282C137.667 111.056 138.011 112.131 138.011 113.507C138.011 115.686 137.194 117.391 135.56 118.624C133.955 119.828 131.805 120.43 129.11 120.43Z" fill="white"/>
</svg>
